<svg width="135" height="135" viewBox="0 0 135 135" fill="none" xmlns="http://www.w3.org/2000/svg">
<path opacity="0.4" d="M67.5 0L125.957 33.75V101.25L67.5 135L9.04329 101.25V33.75L67.5 0Z" fill="#FEB825"/>
<path d="M67.5 10.2273L117.1 38.8637V96.1364L67.5 124.773L17.9004 96.1364V38.8637L67.5 10.2273Z" fill="#FEB825"/>
<mask id="mask0_366_3054" style="mask-type:alpha" maskUnits="userSpaceOnUse" x="17" y="10" width="101" height="115">
<path d="M67.5 10.2273L117.1 38.8637V96.1364L67.5 124.773L17.9004 96.1364V38.8637L67.5 10.2273Z" fill="#F3F3FE"/>
</mask>
<g mask="url(#mask0_366_3054)">
<g filter="url(#filter0_d_366_3054)">
<rect x="25.5682" y="50.1136" width="83.8636" height="74.6591" rx="11.25" fill="#B07801"/>
</g>
<rect opacity="0.8" x="34.7727" y="84.8864" width="65.4545" height="6.13636" rx="3.06818" fill="#FEB825"/>
<rect opacity="0.8" x="34.7727" y="98.1818" width="65.4545" height="6.13636" rx="3.06818" fill="#FEB825"/>
<path d="M67.5 24.5455L91.4141 38.3523V65.9659L67.5 79.7727L43.5859 65.9659V38.3523L67.5 24.5455Z" fill="#FCFCFC"/>
<path d="M67.5 28.6364L87.8713 40.3977V63.9204L67.5 75.6818L47.1287 63.9204V40.3977L67.5 28.6364Z" fill="#FEB825"/>
</g>
<path d="M65.4553 55.4019L74.8566 46.0006L76.3029 47.447L65.4553 58.2946L58.9467 51.7861L60.393 50.3397L65.4553 55.4019Z" fill="#FCFCFC"/>
<defs>
<filter id="filter0_d_366_3054" x="-35.7954" y="9.20456" width="206.591" height="197.386" filterUnits="userSpaceOnUse" color-interpolation-filters="sRGB">
<feFlood flood-opacity="0" result="BackgroundImageFix"/>
<feColorMatrix in="SourceAlpha" type="matrix" values="0 0 0 0 0 0 0 0 0 0 0 0 0 0 0 0 0 0 127 0" result="hardAlpha"/>
<feOffset dy="20.4545"/>
<feGaussianBlur stdDeviation="30.6818"/>
<feComposite in2="hardAlpha" operator="out"/>
<feColorMatrix type="matrix" values="0 0 0 0 0.552941 0 0 0 0 0.607843 0 0 0 0 0.666667 0 0 0 0.15 0"/>
<feBlend mode="normal" in2="BackgroundImageFix" result="effect1_dropShadow_366_3054"/>
<feBlend mode="normal" in="SourceGraphic" in2="effect1_dropShadow_366_3054" result="shape"/>
</filter>
</defs>
</svg>
